<svg width="508" height="390" viewBox="0 0 508 390" class="" fill="none" xmlns="http://www.w3.org/2000/svg">
                  <path d="M346.245 364C344.292 358.5 341.359 314.375 340.785 315.548C340.212 316.722 297.484 316.722 292.901 311.737C288.31 306.752 324.158 307.339 334.48 309.39C344.803 311.44 345.093 315.548 341.359 317.896C337.633 320.244 313.545 320.533 301.501 318.483C289.457 316.433 291.753 314.375 291.753 314.375L290.896 319.946C290.896 319.946 294.622 326.692 313.262 327.569C331.902 328.445 343.655 325.518 343.655 325.518C343.655 325.518 344.512 328.453 341.076 330.793C337.633 333.14 331.328 332.843 312.114 332.843C292.901 332.843 292.901 330.206 292.901 330.206C292.901 330.206 294.048 334.604 295.77 336.364C297.492 338.125 312.114 339.589 326.737 339.589C341.359 339.589 342.798 335.191 342.798 335.191C342.798 335.191 343.655 339.002 343.655 341.349C343.655 343.697 343.655 343.987 341.076 345.747C338.497 347.508 329.606 348.385 315.557 346.921C301.509 345.458 291.76 342.226 291.76 342.226C291.76 342.226 292.043 345.747 292.908 348.385C293.765 351.022 302.656 352.783 317.853 353.369C333.049 353.956 342.798 350.732 342.798 350.732C342.798 350.732 343.946 356.304 343.081 358.065C342.224 359.825 329.032 363.636 314.984 362.76C300.935 361.883 292.043 354.841 292.043 354.841C292.043 354.841 291.76 359.536 291.76 360.999C291.76 362.463 300.361 369.208 316.422 369.505C332.483 369.795 343.662 365.694 343.662 365.694C343.662 365.694 343.662 370.092 340.219 374.49C336.776 378.888 312.122 377.715 300.361 375.077C288.608 372.44 292.334 368.332 292.334 368.332C292.334 368.332 292.334 370.969 290.613 374.193C288.891 377.417 241.297 378.301 232.689 375.657C224.088 373.019 228.098 339.291 230.393 335.191C232.689 331.082 274.268 334.901 279.709 339.299C285.157 343.697 273.113 344.871 257.343 343.11C241.572 341.349 231.533 336.951 234.403 332.843C237.272 328.735 277.13 331.38 283.719 334.017C290.314 336.654 284.002 338.712 283.719 341.639C283.435 344.573 267.374 348.087 254.473 346.913C241.572 345.74 231.25 339.291 231.25 339.291V346.913C231.25 350.725 243.294 350.725 263.655 351.022C284.017 351.311 283.443 348.674 283.443 348.674C283.443 348.674 283.726 351.311 283.152 354.833C282.578 358.354 274.261 359.231 258.781 360.115C243.294 360.992 231.25 356.007 231.25 356.007C231.25 356.007 232.972 362.165 250.747 364.513C268.522 366.861 279.709 361.578 280.566 361.578C281.423 361.578 280.566 363.629 275.975 369.498C271.384 375.359 212.32 369.208 207.446 370.672C202.571 372.135 206.298 373.309 211.172 372.722C216.046 372.135 211.746 274.48 210.881 265.982C210.024 257.475 206.007 241.934 206.007 238.412C206.007 234.891 207.438 230.79 220.346 225.508C233.247 220.234 249.018 216.125 253.035 215.538C257.052 214.952 257.052 226.392 267.948 229.906C278.844 233.428 287.162 231.667 287.736 234.891C288.31 238.115 282.288 229.906 277.987 220.813C273.687 211.72 260.786 214.067 259.638 214.654C258.49 215.241 268.813 213.48 279.709 211.72C290.605 209.959 323.867 195.294 327.311 192.954C330.754 190.606 345.95 160.987 350.251 159.523C354.551 158.06 353.403 163.334 351.108 163.334C348.812 163.334 362.861 154.241 368.309 158.052C373.757 161.863 366.878 170.957 359.708 172.42C352.539 173.883 341.933 165.385 341.933 165.385C341.933 165.385 332.468 186.208 329.606 187.375C326.737 188.548 321.863 181.803 323.584 173.883C325.306 165.964 333.623 137.518 336.776 134.004C339.928 130.483 332.759 148.083 326.454 158.35C320.148 168.609 321.87 179.753 319.001 182.687C316.131 185.622 315.274 168.609 316.131 164.798C316.988 160.987 326.454 135.765 329.323 132.244C332.192 128.722 349.968 105.261 356.273 103.211C362.585 101.161 386.666 103.508 394.983 102.335C403.301 101.161 420.502 91.191 422.507 90.8937C424.511 90.5964 434.551 115.818 432.829 123.737C431.107 131.657 417.633 84.4454 417.633 84.4454C417.633 84.4454 466.948 53.652 474.982 52.4782C483.009 51.3044 506.814 90.8937 506.814 97.6393C506.814 104.385 426.814 131.367 425.667 132.244C424.519 133.12 421.65 138.692 416.201 146.611C410.753 154.531 400.714 163.037 391.831 169.775C382.939 176.521 376.343 195.873 371.469 195.584C366.595 195.294 362.578 185.027 365.447 179.158C368.316 173.297 370.612 161.566 375.486 156.581C380.36 151.596 383.23 145.14 382.365 142.503C381.508 139.866 374.339 143.677 358.568 148.951C342.798 154.234 340.502 164.203 335.054 172.999C329.606 181.795 326.737 196.75 340.212 205.256C353.686 213.762 364.583 192.352 363.442 184.73C362.295 177.108 353.977 168.601 341.933 172.123C329.889 175.644 331.894 187.664 339.638 194.997C347.381 202.329 352.539 192.946 347.664 188.838C342.79 184.73 343.073 176.521 348.238 176.818C353.403 177.108 353.686 183.266 354.834 184.737C355.982 186.201 356.265 180.926 354.834 181.216C353.403 181.506 333.325 192.946 325.298 196.758C317.272 200.569 300.927 207.024 291.462 206.727C281.997 206.438 293.467 174.76 297.484 176.521C301.501 178.281 296.336 194.41 288.019 201.742C279.702 209.075 263.931 207.901 262.5 207.901C261.069 207.901 267.948 178.571 269.387 178.571C270.825 178.571 259.064 179.448 256.769 174.463C254.473 169.478 251.321 155.987 264.512 152.465C277.704 148.944 287.162 160.972 283.726 174.752C280.283 188.533 257.633 181.201 258.207 176.513C258.781 171.818 271.108 177.977 272.83 170.941C274.552 163.906 259.638 169.768 259.929 164.783C260.212 159.798 271.116 164.196 271.116 164.196C271.116 164.196 270.833 163.022 269.685 161.848C268.537 160.674 260.51 203.488 258.498 207.596C256.493 211.705 241.58 214.631 234.41 215.516C227.24 216.392 218.64 193.228 229.245 181.498C239.858 169.768 231.824 167.717 230.676 168.007C229.529 168.296 239.277 174.165 238.42 187.07C237.563 199.974 228.098 213.168 224.945 215.218C221.792 217.269 201.431 228.412 200.857 229.883C200.283 231.347 193.404 208.183 193.114 198.8C192.83 189.417 193.114 180.621 193.971 178.274C194.828 175.926 210.315 174.463 218.916 167.13C227.516 159.798 227.233 153.052 227.233 153.052C227.233 153.052 212.894 150.415 202.571 157.45C192.249 164.485 193.68 174.165 193.68 174.165C193.68 174.165 191.958 156.863 192.823 153.639C193.68 150.415 195.402 150.705 204.576 146.604C213.751 142.496 224.647 139.858 231.526 135.163C238.405 130.468 247.587 122.556 247.587 122.556L248.735 124.904C248.735 124.904 249.309 131.939 257.909 135.46C266.51 138.982 274.544 135.75 274.544 137.511C274.544 139.271 268.239 132.236 265.079 126.664C261.926 121.093 252.178 120.506 252.178 120.506C252.178 120.506 290.888 109.659 291.462 111.123C292.036 112.586 289.167 99.3924 294.905 92.6468C300.637 85.9012 323.867 85.9012 322.146 102.03C320.424 118.158 308.671 117.282 300.637 114.347C292.61 111.412 293.467 99.0951 297.767 97.9213C302.068 96.7475 302.351 113.463 306.368 108.188C310.385 102.906 304.937 93.8206 311.525 92.9364C318.121 92.0599 314.969 102.319 315.826 104.377C316.683 106.428 318.121 99.1027 315.542 100.269C312.964 101.443 249.882 116.695 249.882 116.695C249.882 116.695 261.062 102.914 261.352 99.9793C261.643 97.0448 250.173 88.5385 255.047 78.5687C259.922 68.599 273.97 68.0121 280.283 80.3294C286.588 92.6468 275.409 98.5082 268.239 98.2186C261.069 97.9289 254.764 90.0095 258.491 87.6619C262.217 85.3143 270.818 95.2841 273.687 90.5964C276.556 85.9012 259.348 82.9743 263.939 80.6267C268.53 78.2791 273.687 83.8509 273.687 83.8509C273.687 83.8509 273.404 82.3874 271.391 82.677C269.387 82.9743 245.582 116.992 236.698 125.788C227.807 134.584 191.683 145.727 191.683 148.959C191.683 152.191 194.261 114.652 195.126 112.007C195.983 109.37 207.453 108.486 215.197 104.088C222.94 99.6897 223.223 88.5461 223.223 88.5461C223.223 88.5461 214.623 85.9088 205.448 91.4806C196.274 97.0524 195.7 105.848 194.261 108.196C192.83 110.544 191.966 99.6897 191.966 93.531C191.966 87.3723 232.398 61.861 236.124 64.2086C239.851 66.5562 225.228 56.5865 227.524 48.3698C229.819 40.1608 245.299 35.1759 251.611 46.6091C257.917 58.0499 250.18 70.07 238.71 68.6066C227.24 67.1431 227.24 51.8913 231.831 55.4127C236.422 58.9341 245.88 67.4328 245.023 58.9341C244.166 50.4278 230.4 49.5513 237.57 46.6167C244.74 43.6822 244.449 51.8989 246.171 51.312C247.893 50.7251 243.592 45.7402 243.592 45.7402C243.592 45.7402 244.449 46.914 240.723 52.7754C236.996 58.6445 226.674 65.3824 213.766 72.7149C200.865 80.0474 192.547 87.3799 191.973 89.4303C191.399 91.4806 190.542 71.2515 190.542 68.6066C190.542 65.9617 201.729 66.5562 207.744 59.2237C213.766 51.8913 214.623 45.4429 216.061 40.4581C217.492 35.4732 217.209 40.7477 216.635 41.9215C216.061 43.0953 208.318 41.045 200.865 45.7326C193.412 50.4278 191.399 63.0348 190.542 64.4983C189.685 65.9617 192.838 30.7703 192.838 31.9441C192.838 33.1179 179.579 42.234 172.916 28.7581C161.953 6.57768 188.046 -2.84327 198.651 2.43124C209.264 7.71338 210.65 31.9136 198.89 36.3116C187.136 40.7096 175.055 29.5965 180.503 26.0751C185.951 22.5537 199.143 24.9013 195.126 20.8006C191.109 16.6923 180.213 21.0902 182.508 15.8157C184.804 10.5336 192.83 15.8157 194.261 14.3523C195.692 12.8888 192.83 12.5915 191.109 13.7654C189.387 14.9392 185.087 82.9743 185.087 82.9743C185.087 82.9743 173.9 79.4529 160.999 62.7376C148.098 46.0222 145.803 50.7175 145.803 50.7175C145.803 50.7175 157.846 48.3698 167.595 53.652C177.343 58.9341 185.087 78.2867 185.37 79.7502C185.653 81.2136 187.949 89.7199 187.666 104.972C187.382 120.224 183.939 160.4 185.37 156.292C186.801 152.183 171.605 132.831 160.425 129.309C149.246 125.788 155.551 116.992 155.551 114.942C155.551 112.891 151.698 114.553 146.376 112.594C127.863 105.78 139.177 81.9453 151.221 80.1846C163.265 78.4239 177.433 92.6163 169.093 106.992C164.547 114.827 149.238 111.123 146.086 107.891C142.933 104.667 158.13 106.13 158.987 102.03C159.844 97.9213 144.647 101.443 145.221 97.6317C145.795 93.8206 155.26 97.9289 156.691 97.6317C158.122 97.342 154.686 95.5813 153.539 95.2841C152.391 94.9944 151.817 124.904 151.534 126.954C151.251 129.004 136.621 120.208 135.473 118.448C134.325 116.687 130.308 125.483 123.712 124.896C117.116 124.309 110.811 109.652 117.69 102.609C124.569 95.5737 134.034 103.783 138.335 111.405C142.635 119.027 133.461 123.722 129.443 123.722C125.426 123.722 134.891 118.737 132.887 112.876C130.882 107.015 126.291 117.571 120.843 116.1C115.395 114.637 126.581 110.528 128.012 109.057C129.443 107.594 119.986 110.528 122.281 109.934C124.577 109.347 135.182 124.888 145.504 128.41C155.827 131.931 173.893 139.553 178.767 150.407C183.641 161.261 184.789 172.108 184.498 174.158C184.215 176.208 181.055 155.095 169.585 153.334C158.115 151.574 145.497 151.871 145.497 151.871C145.497 151.871 145.214 163.312 155.819 171.521C166.432 179.73 181.912 175.332 184.207 182.961C186.503 190.584 183.06 209.06 185.638 208.183C188.217 207.307 160.403 191.757 145.206 192.344C130.01 192.931 124.271 195.279 125.709 198.206C127.14 201.14 125.136 182.664 115.67 178.266C106.205 173.868 101.622 166.833 102.196 165.949C102.769 165.072 101.048 172.694 102.196 181.201C103.343 189.707 122.557 191.46 121.119 197.04C119.688 202.611 116.818 216.979 116.244 218.74C115.67 220.5 111.944 219.037 107.644 219.037C103.343 219.037 98.4692 225.783 98.7524 231.941C99.0356 238.1 104.484 246.309 115.38 242.208C126.276 238.1 120.828 226.369 117.385 223.732C113.941 221.095 102.762 221.682 102.471 226.369C102.188 231.065 110.789 227.833 113.367 228.42C115.946 229.007 115.372 232.818 113.367 236.339C111.363 239.861 106.198 235.752 104.767 236.339C103.336 236.926 106.772 240.448 107.062 238.1C107.346 235.752 115.663 205.553 115.663 203.206C115.663 200.858 107.062 201.155 105.341 207.017C103.619 212.878 103.291 223.74 86.3656 222.032C68.0985 220.188 69.7158 198.312 75.1639 191.567C80.612 184.821 98.9983 178.891 103.522 195.225C106.146 204.685 99.0281 212.886 96.1587 209.364C93.2893 205.843 93.58 197.047 88.989 201.155C84.398 205.264 88.132 210.538 83.2578 210.538C78.3836 210.538 82.11 203.503 81.5361 202.329C80.9623 201.155 78.3835 203.793 81.8193 205.264C85.2626 206.727 99.0207 204.09 105.043 202.627C111.065 201.163 159.233 191.773 172.141 200.866C185.042 209.959 191.355 225.501 190.781 234.883C190.207 244.266 183.902 254.823 164.398 243.679C144.901 232.536 131.135 233.71 130.561 235.47C129.988 237.231 143.179 222.566 158.659 224.327C174.146 226.087 190.773 238.992 194.217 250.722C197.66 262.453 193.36 307.614 195.648 308.201C197.943 308.788 196.505 303.505 187.047 303.505C177.589 303.505 149.194 303.216 144.036 307.614C138.879 312.012 145.467 312.896 143.753 313.475C142.031 314.062 141.748 310.541 143.179 310.251C144.61 309.961 154.649 314.939 172.424 314.939C190.2 314.939 197.66 311.714 197.66 311.714C197.66 311.714 197.66 314.062 195.364 317.576C193.069 321.097 183.894 320.8 161.528 321.097C139.162 321.387 141.741 317.576 141.741 317.576C141.741 317.576 141.167 321.097 141.167 323.735C141.167 326.372 147.763 327.256 168.981 328.43C190.2 329.604 198.226 325.206 198.226 325.206C198.226 325.206 198.509 329.314 197.369 331.662C196.221 334.009 186.473 336.357 166.402 336.357C146.332 336.357 142.315 331.959 142.315 331.959C142.315 331.959 142.315 335.48 144.319 339.581C146.324 343.689 156.647 341.929 172.708 341.929C188.769 341.929 198.517 337.531 198.517 337.531C198.517 337.531 198.517 341.639 197.086 345.45C195.655 349.261 186.764 349.261 165.829 349.261C144.893 349.261 141.741 344.863 141.741 344.863C141.741 344.863 141.458 346.624 141.741 349.848C142.024 353.072 148.046 354.833 168.698 356.883C189.342 358.934 199.091 352.188 199.091 352.188C199.091 352.188 199.382 360.397 200.522 360.694C201.67 360.992 199.374 356.586 197.652 359.52C195.931 362.455 182.456 363.332 159.225 362.455C136.002 361.578 142.307 354.833 142.307 354.833C142.307 354.833 142.016 359.818 142.016 363.339C142.016 366.861 149.469 370.374 167.826 371.548C186.175 372.722 199.94 365.1 199.94 365.1C199.94 365.1 201.088 374.483 192.771 377.128C184.453 379.765 158.651 379.178 148.329 376.251C138.007 373.317 143.738 368.919 143.738 368.042C143.738 367.166 146.786 371.297 144.58 374.91C142.374 378.522 89.3542 378.522 82.2889 376.266C75.2235 374.01 75.2236 330.633 79.6357 328.369C84.0553 326.113 98.6331 333.788 120.284 328.369C141.934 322.949 135.749 312.553 124.703 312.553C113.658 312.553 75.2235 314.359 75.6632 319.779C76.1029 325.198 84.9421 324.748 103.94 324.748C122.937 324.748 131.776 322.035 131.776 322.035C131.776 322.035 131.776 326.105 131.336 328.811C130.897 331.524 125.151 334.688 103.947 334.688C82.7435 334.688 75.231 330.617 75.231 330.617L74.7913 336.037C74.7913 336.037 76.9972 344.619 100.854 344.17C124.711 343.72 133.55 340.107 133.55 340.107V344.627C133.55 344.627 123.384 352.76 101.741 352.76C80.0977 352.76 76.9973 346.883 76.9973 346.883V351.853C76.9973 353.209 85.3893 359.086 99.9746 359.086C114.56 359.086 134.877 352.31 134.877 352.31V360.443C134.877 363.156 123.392 365.412 102.181 365.412C80.9698 365.412 75.6707 359.086 75.6707 359.086V365.862C75.6707 369.475 84.0627 372.188 101.294 372.638C118.525 373.088 134.869 367.669 134.869 367.669C134.869 367.669 134.869 369.932 133.982 374.902C133.103 379.872 97.314 379.422 84.0552 378.515C70.804 377.615 71.6834 372.646 71.6834 372.646C71.6834 372.646 65.4974 376.259 62.4045 374.452C59.3115 372.646 64.1709 348.247 57.5452 345.084C50.9196 341.921 35.0151 346.441 16.897 344.634C-1.21353 342.828 1.43232 335.595 14.691 334.695C27.9423 333.788 63.7311 336.951 61.525 344.185C59.3115 351.411 42.0879 348.255 26.1833 348.255C20.0347 348.255 15.1307 347.577 11.4415 346.746C5.591 345.435 2.76636 343.735 2.76636 343.735C2.76636 343.735 2.76633 347.348 3.20605 351.418C3.64578 355.488 31.0427 355.031 43.407 354.132C55.7789 353.232 61.525 352.775 61.525 352.775C61.525 352.775 63.2914 349.612 63.2914 355.488C63.2914 361.365 54.8994 359.551 33.2487 360.008C11.598 360.458 1 356.395 1 356.395V363.621C1 363.621 23.0904 368.141 35.4622 368.141C47.834 368.141 64.618 362.264 64.618 362.264C64.618 362.264 65.0577 366.335 64.1783 369.041C63.2914 371.754 48.2738 374.917 29.2764 374.917C10.2789 374.917 3.2135 369.948 3.2135 369.948V375.817C3.2135 378.53 28.8366 382.143 46.0677 381.693C63.2989 381.244 64.6255 374.917 64.6255 374.917C64.6255 374.917 64.6255 375.176 64.5807 375.664C64.0069 381.419 59.7736 386.053 54.251 387.318C33.1071 392.174 3.57129 384.971 3.57129 384.971" stroke="white" stroke-width="2" stroke-linecap="square" stroke-linejoin="bevel"/>
                  </svg>